PathFileType	4	(X/Y/Z)	 s01c0401.trc
DataRate	CameraRate	NumFrames	NumMarkers	Units	OrigDataRate	OrigDataStartFrame	OrigNumFrames
200	200	6	48	mm	200	501	2000
Frame#	Time	racr			lacr			c7			jug			rlel			rdr			llel			ldr			s2			lic			ric			lasi			rasi			rpsi			lpsi			rgt			lgt			rth1			rth2			rth3			rth4			rlfc			rsh1			rsh2			rsh3			rsh4			rlmal			rmmal			rcal			rtoe			rmt5			lth1			lth2			lth4			lth3			llfc			lsh1			lsh2			lsh3			lsh4			llmal			lmmal			lcal			ltoe			lmt5			SBIKE			LBIKE			RBIKE			
		X1	Y1	Z1	X2	Y2	Z2	X3	Y3	Z3	X4	Y4	Z4	X5	Y5	Z5	X6	Y6	Z6	X7	Y7	Z7	X8	Y8	Z8	X9	Y9	Z9	X10	Y10	Z10	X11	Y11	Z11	X12	Y12	Z12	X13	Y13	Z13	X14	Y14	Z14	X15	Y15	Z15	X16	Y16	Z16	X17	Y17	Z17	X18	Y18	Z18	X19	Y19	Z19	X20	Y20	Z20	X21	Y21	Z21	X22	Y22	Z22	X23	Y23	Z23	X24	Y24	Z24	X25	Y25	Z25	X26	Y26	Z26	X27	Y27	Z27	X28	Y28	Z28	X29	Y29	Z29	X30	Y30	Z30	X31	Y31	Z31	X32	Y32	Z32	X33	Y33	Z33	X34	Y34	Z34	X35	Y35	Z35	X36	Y36	Z36	X37	Y37	Z37	X38	Y38	Z38	X39	Y39	Z39	X40	Y40	Z40	X41	Y41	Z41	X42	Y42	Z42	X43	Y43	Z43	X44	Y44	Z44	X45	Y45	Z45	X46	Y46	Z46	X47	Y47	Z47	X48	Y48	Z48	
501	2.5050	675.939537	1326.970848	-40.644855	703.266403	1308.649024	-410.735448	671.371080	1414.048908	-228.415457	690.566907	1247.120502	-221.620611	544.883773	1069.672418	58.484827	700.127908	899.772337	-38.019649	559.252411	1075.566512	-540.096153	705.406047	896.933270	-450.131671	152.625186	1190.013285	-224.508754	321.518742	1197.501960	-407.928070	319.828784	1173.860966	-76.779049	318.381736	1140.064286	-381.771236	344.470438	1128.592283	-110.525675	193.728355	1223.359024	-174.709962	184.008434	1232.822184	-279.419075	253.634068	1058.678426	-54.221911	265.904377	1072.817058	-432.743256	298.654667	936.315679	-39.915319	331.509384	860.257800	-46.073606	361.709194	776.324176	-60.067057	383.352782	879.864469	-57.555124	381.681203	662.083588	-84.999850	330.636738	553.225184	-52.723393	306.427272	472.162157	-60.196854	272.794235	390.826487	-73.032133	350.572163	460.129729	-99.711714	214.419153	280.402611	-99.300407	253.262155	288.027716	-174.633122	165.658041	267.843670	-151.130846	414.816331	160.898820	-130.439290	304.834835	165.842220	-63.361712	352.210815	982.702555	-444.386840	430.913430	946.275003	-437.432965	454.029561	993.469223	-424.260218	502.268248	900.812304	-424.749832	563.765606	818.112663	-405.129732	458.968617	777.625637	-437.936265	384.301498	734.035492	-433.343520	308.312611	694.600695	-422.095549	412.414426	689.101741	-400.977426	200.109780	637.059816	-410.445760	222.292152	620.191727	-326.065258	141.472810	652.650761	-367.162208	286.252923	414.517680	-367.473609	211.753999	488.673995	-435.920600	-270.428453	878.021353	-265.201621	-11.949298	84.604444	-453.459364	-20.239250	80.825934	-53.662456	
502	2.5100	677.043268	1328.285534	-43.095962	702.660518	1309.519019	-413.245065	671.431615	1415.095728	-231.152075	690.979346	1248.370326	-224.088439	546.198718	1071.307800	57.361357	700.498485	899.950328	-38.039083	558.890043	1075.399615	-540.839224	705.460693	897.414267	-450.356910	152.801899	1190.861812	-224.721621	321.156199	1198.647770	-408.580193	320.527533	1174.556328	-77.622504	318.333209	1141.066730	-382.357762	344.769185	1128.937744	-111.057050	193.789563	1224.453073	-174.634834	184.102320	1233.536617	-279.473359	253.166876	1059.137152	-54.908860	266.030554	1074.474054	-433.352145	296.890181	936.521076	-40.281936	328.760457	860.183411	-46.197176	358.159554	775.856026	-59.873306	380.973941	879.025406	-57.554431	377.052841	661.335929	-84.700352	326.004069	552.469017	-52.506110	301.999262	471.282965	-60.016781	268.627328	389.903909	-72.879605	346.353213	459.363372	-99.258570	210.654854	279.403439	-99.551951	248.739824	286.443728	-174.608153	162.161845	267.698458	-151.159099	409.805891	157.336327	-130.539835	299.918810	163.784306	-63.362521	353.051004	984.933508	-445.035311	432.308499	949.387301	-438.354461	454.861164	996.796812	-424.718265	503.748024	904.559395	-425.731181	566.147275	822.550367	-405.614743	461.283826	781.472773	-438.117956	386.896549	737.413700	-433.410634	311.106721	697.616148	-422.068624	415.327606	692.701825	-401.197483	203.355082	639.355014	-410.322831	225.711306	622.731242	-325.923307	144.426871	654.354144	-367.101614	292.139094	418.071223	-367.475494	216.874979	491.442714	-435.982803	-270.495837	877.995629	-265.090972	-11.951699	84.613544	-453.462763	-20.245649	80.835290	-53.669481	
503	2.5150	678.189116	1329.417472	-45.582635	702.021171	1310.356280	-415.706739	671.516005	1416.073799	-233.803279	691.352385	1249.483637	-226.708305	547.428906	1072.956746	56.295812	700.871712	900.161069	-38.095155	558.559646	1075.207640	-541.673583	705.467276	897.722546	-450.655964	152.878683	1191.589635	-224.882581	320.774648	1199.780193	-409.235491	321.354294	1175.252118	-78.523333	318.228224	1142.202374	-382.885840	345.033987	1129.328158	-111.604713	194.126278	1224.999489	-174.808675	184.204746	1234.362443	-279.558202	252.702968	1059.797014	-55.600493	266.067707	1076.135016	-433.972809	295.039436	936.925580	-40.597055	326.071788	860.129769	-46.344354	354.577678	775.477586	-59.710585	378.546200	878.412608	-57.530546	372.357106	660.722475	-84.448777	321.275411	551.810934	-52.305529	297.501999	470.670162	-59.841477	264.366787	389.103088	-72.696355	342.056113	458.736231	-98.916625	206.889578	278.701870	-99.741089	244.754286	285.279735	-174.446784	158.610095	267.745526	-151.159881	404.671570	154.029673	-130.643965	294.946328	161.996760	-63.441237	353.762442	987.224823	-445.772943	433.411495	952.561966	-439.237986	455.528545	1000.202258	-425.320601	506.416509	909.224098	-425.266232	568.406295	827.028152	-406.180450	463.501876	785.314715	-438.353133	389.383277	740.818886	-433.505642	313.872004	700.512977	-422.042667	418.166429	696.237523	-401.436912	206.571445	641.438111	-410.210813	229.158003	625.128527	-325.806829	147.394548	655.830176	-367.049699	298.160593	421.587273	-367.375604	221.853902	494.005418	-435.894185	-270.540059	878.025611	-265.105334	-11.955335	84.611245	-453.470620	-20.243129	80.854456	-53.674787	
504	2.5200	679.485777	1330.430828	-48.109721	701.406088	1311.142928	-418.245320	671.694547	1416.941997	-236.539005	691.802326	1250.679290	-229.260100	548.580263	1074.548647	55.303564	700.827468	900.040960	-38.316218	558.455649	1075.275817	-542.284560	705.449364	898.055734	-450.903347	152.961879	1192.612545	-225.120808	320.403428	1200.898801	-409.893481	322.050667	1176.112999	-79.360210	318.092931	1143.361675	-383.462087	345.250548	1129.724776	-112.159406	194.432036	1225.803492	-175.019795	184.304051	1235.356847	-279.670349	252.190689	1060.497555	-56.302344	265.980230	1077.803280	-434.591308	293.161202	937.410256	-40.883525	323.311274	860.297725	-46.017415	350.990789	775.228094	-59.503434	376.107054	877.937539	-57.537349	367.712868	660.163712	-84.326361	316.506945	551.446743	-52.052144	292.927406	470.171428	-59.607072	260.074999	388.568386	-72.470394	337.744488	458.283238	-98.421141	203.178899	278.096194	-99.815610	241.097395	284.442142	-174.184380	155.050197	267.911170	-151.264101	399.546169	150.924449	-130.686226	289.911877	160.269356	-63.529148	354.328647	989.563717	-446.572937	434.363425	955.830517	-440.072997	455.878630	1003.768168	-426.004874	507.892988	913.339349	-426.045350	570.312747	831.332709	-407.199216	465.615221	789.148242	-438.627337	391.796684	744.207914	-433.693421	316.601331	703.314136	-422.032182	420.962796	699.729724	-401.797306	209.810517	643.346372	-410.104169	232.628697	627.341386	-325.711651	150.361811	657.068395	-366.985320	304.194555	424.867844	-367.291769	226.948922	496.273540	-435.847633	-270.608602	878.032003	-265.057364	-11.959675	84.609799	-453.477675	-20.259686	80.864500	-53.683976	
505	2.5250	680.760027	1331.396871	-50.701335	700.812911	1311.892536	-420.784781	671.945937	1417.791703	-239.274823	692.193714	1251.601246	-231.907678	549.717676	1076.041751	54.346284	701.138338	900.085343	-38.311020	557.977310	1075.123988	-543.220436	705.351271	898.420793	-451.153864	156.808753	1192.354528	-226.214664	320.041157	1202.027430	-410.546830	322.807554	1176.956686	-80.289312	317.936974	1144.607226	-383.933062	345.420422	1130.160583	-112.727710	195.154763	1226.140560	-175.549354	184.399220	1236.470454	-279.802248	251.682573	1061.344057	-56.992364	265.788325	1079.509966	-435.273573	291.299605	937.925155	-41.290829	320.551565	860.491737	-46.121568	347.338294	775.108310	-59.402859	373.570224	877.546069	-57.548705	362.917472	659.879497	-84.159152	311.720291	551.120553	-51.872771	288.334359	469.865153	-59.366222	255.797077	388.171302	-72.095021	333.272378	458.004099	-97.982454	199.430393	277.783226	-99.965592	237.473825	283.787659	-173.949347	151.536878	268.366851	-151.134498	394.277872	147.719599	-130.814338	284.825160	158.657653	-63.596020	354.758822	991.972477	-447.458256	435.181612	959.034292	-440.943008	456.173187	1007.279496	-426.586586	509.191348	917.392640	-426.811655	571.837855	835.717528	-408.612462	467.627783	792.947452	-438.957503	394.162195	747.459888	-433.857174	319.261889	706.007385	-422.068256	423.730026	703.162661	-402.203011	213.030241	645.003062	-410.022265	236.107278	629.357517	-325.531268	153.334412	658.063121	-366.934798	310.322372	428.011209	-367.269127	232.138168	498.365606	-435.863946	-270.622129	877.954071	-265.254798	-11.967546	84.606231	-453.478514	-20.261250	80.866964	-53.664137	
506	2.5300	682.132440	1332.214400	-53.272019	700.187948	1312.552179	-423.400952	672.252506	1418.533417	-242.070504	692.615532	1252.565020	-234.580830	550.924494	1077.393359	53.432885	701.499895	900.083408	-38.328089	557.376654	1075.110836	-544.311682	705.234363	898.768606	-451.443421	156.873251	1193.568618	-226.484386	319.695230	1203.171927	-411.198089	323.468562	1177.889907	-81.160292	317.727723	1145.886165	-384.467740	345.546213	1130.623003	-113.301207	195.185577	1227.773623	-175.504297	184.482025	1237.694311	-279.950636	251.086285	1062.198970	-57.708208	265.564264	1081.203976	-435.936482	289.350703	938.639699	-41.669922	317.883866	860.787226	-46.741595	343.596249	775.206054	-59.069359	371.073164	877.295827	-57.599661	358.118820	659.761018	-84.020066	306.962427	551.053369	-51.734255	283.773657	469.712678	-59.200704	251.519437	388.170984	-71.644382	329.009028	457.804803	-97.444360	195.714853	277.434810	-100.062346	233.843582	283.322824	-173.657705	148.075084	268.963222	-151.102245	388.955538	144.673599	-130.964721	279.665518	157.157247	-63.710573	355.063736	994.450579	-448.377542	435.773144	962.424067	-441.858236	456.251433	1010.753922	-427.210509	510.165476	921.512260	-427.670623	573.876576	840.916423	-408.567449	469.526570	796.689583	-439.335112	396.433971	750.667814	-434.096824	321.939547	708.531271	-422.056670	426.382463	706.593342	-402.736377	216.164047	646.501872	-409.999519	239.625592	631.142151	-325.476137	156.361246	658.824211	-366.915017	316.538946	431.100768	-367.184479	237.307143	500.236811	-435.848316	-270.816067	877.968939	-265.439564	-11.968692	84.605083	-453.485734	-20.268037	80.854346	-53.690253	
